<?xml version="1.0" encoding="iso-8859-1"?>
<!-- Generator: Adobe Illustrator 16.0.0, SVG Export Plug-In . SVG Version: 6.00 Build 0)  -->
<!DOCTYPE svg PUBLIC "-//W3C//DTD SVG 1.1//EN" "http://www.w3.org/Graphics/SVG/1.1/DTD/svg11.dtd">
<svg version="1.1" id="Capa_1" xmlns="http://www.w3.org/2000/svg" xmlns:xlink="http://www.w3.org/1999/xlink" x="0px" y="0px"
	 width="28px" height="28px" viewBox="0 0 28 28" style="enable-background:new 0 0 28 28;"
	 xml:space="preserve">
<g>
	<path d="M19.9 23.5c-.157 0-.312-.05-.442-.144L12 17.928l-7.458 5.43c-.228.164-.53.19-.782.06-.25-.127-.41-.385-.41-.667V5.6c0-1.24 1.01-2.25 2.25-2.25h12.798c1.24 0 2.25 1.01 2.25 2.25v17.15c0 .282-.158.54-.41.668-.106.055-.223.082-.34.082zM12 16.25c.155 0 .31.048.44.144l6.71 4.883V5.6c0-.412-.337-.75-.75-.75H5.6c-.413 0-.75.338-.75.75v15.677l6.71-4.883c.13-.096.285-.144.44-.144z"/>
</g>
<g>
</g>
<g>
</g>
<g>
</g>
<g>
</g>
<g>
</g>
<g>
</g>
<g>
</g>
<g>
</g>
<g>
</g>
<g>
</g>
<g>
</g>
<g>
</g>
<g>
</g>
<g>
</g>
<g>
</g>
</svg>
