<?xml version="1.0" encoding="iso-8859-1"?>
<!-- Generator: Adobe Illustrator 18.1.1, SVG Export Plug-In . SVG Version: 6.00 Build 0)  -->
<svg version="1.1" id="Capa_1" xmlns="http://www.w3.org/2000/svg" xmlns:xlink="http://www.w3.org/1999/xlink" x="0px" y="0px"
	 viewBox="0 0 28 28" style="enable-background:new 0 0 28 28;" xml:space="preserve">
<g id="_x37_7_Essential_Icons_38_">
	<path d="M16.5 10.25c-.965 0-1.75.787-1.75 1.75s.784 1.75 1.75 1.75c.964 0 1.75-.786 1.75-1.75s-.786-1.75-1.75-1.75zm0 2.5c-.414 0-.75-.336-.75-.75 0-.413.337-.75.75-.75s.75.336.75.75c0 .413-.336.75-.75.75zm-4.5-2.5c-.966 0-1.75.787-1.75 1.75s.785 1.75 1.75 1.75 1.75-.786 1.75-1.75-.784-1.75-1.75-1.75zm0 2.5c-.414 0-.75-.336-.75-.75 0-.413.337-.75.75-.75s.75.336.75.75c0 .413-.336.75-.75.75zm-4.5-2.5c-.965 0-1.75.787-1.75 1.75s.785 1.75 1.75 1.75c.964 0 1.75-.786 1.75-1.75s-.787-1.75-1.75-1.75zm0 2.5c-.414 0-.75-.336-.75-.75 0-.413.337-.75.75-.75s.75.336.75.75c0 .413-.336.75-.75.75z"/>
	<path d="M12 22.75C6.072 22.75 1.25 17.928 1.25 12S6.072 1.25 12 1.25 22.75 6.072 22.75 12 17.928 22.75 12 22.75zm0-20C6.9 2.75 2.75 6.9 2.75 12S6.9 21.25 12 21.25s9.25-4.15 9.25-9.25S17.1 2.75 12 2.75z" />
</g>
<g>
</g>
<g>
</g>
<g>
</g>
<g>
</g>
<g>
</g>
<g>
</g>
<g>
</g>
<g>
</g>
<g>
</g>
<g>
</g>
<g>
</g>
<g>
</g>
<g>
</g>
<g>
</g>
<g>
</g>
</svg>
